<svg width="148" height="22" viewBox="0 0 148 22" fill="none" xmlns="http://www.w3.org/2000/svg">
<g id="Logo">
<g id="Nextmove">
<path d="M27.866 19.8333V1.06396H31.2981L40.1197 14.2829V1.06396H43.5518V19.8333H40.1197L31.2981 6.64114V19.8333H27.866Z" fill="black"/>
<path d="M52.2314 20.1551C50.8907 20.1551 49.702 19.8691 48.6652 19.297C47.6284 18.725 46.8151 17.9206 46.2252 16.8838C45.6353 15.8471 45.3403 14.6494 45.3403 13.2908C45.3403 11.9144 45.6263 10.69 46.1984 9.61742C46.7882 8.54489 47.5926 7.71367 48.6116 7.12378C49.6483 6.51601 50.8639 6.21213 52.2582 6.21213C53.5631 6.21213 54.7161 6.49814 55.7171 7.07015C56.7181 7.64217 57.4957 8.4287 58.0498 9.42973C58.6219 10.4129 58.9079 11.5122 58.9079 12.7278C58.9079 12.9244 58.8989 13.13 58.8811 13.3445C58.8811 13.559 58.8721 13.7824 58.8542 14.0148H48.7456C48.8171 15.0516 49.1746 15.8649 49.8182 16.4548C50.4795 17.0447 51.275 17.3397 52.2045 17.3397C52.9017 17.3397 53.4826 17.1877 53.9474 16.8838C54.43 16.5621 54.7876 16.1509 55.0199 15.6504H58.5057C58.2554 16.4906 57.8353 17.2592 57.2454 17.9564C56.6734 18.6356 55.9584 19.1719 55.1004 19.5652C54.2602 19.9584 53.3039 20.1551 52.2314 20.1551ZM52.2582 9.00071C51.418 9.00071 50.6762 9.24203 50.0327 9.72467C49.3891 10.1894 48.978 10.9045 48.7992 11.8697H55.4221C55.3685 10.9938 55.0468 10.2967 54.4569 9.7783C53.867 9.25991 53.1341 9.00071 52.2582 9.00071Z" fill="black"/>
<path d="M58.2771 19.8333L63.1035 13.1836L58.2771 6.53389H61.9506L65.329 11.253L68.6807 6.53389H72.3809L67.5277 13.1836L72.3809 19.8333H68.6807L65.329 15.1142L61.9506 19.8333H58.2771Z" fill="black"/>
<path d="M79.1526 19.8333C77.7583 19.8333 76.6411 19.4937 75.8009 18.8144C74.9608 18.1351 74.5407 16.9285 74.5407 15.1946V9.40291H72.2615V6.53389H74.5407L74.9429 2.96771H77.9728V6.53389H81.5658V9.40291H77.9728V15.2214C77.9728 15.8649 78.1069 16.3118 78.375 16.5621C78.661 16.7945 79.1436 16.9106 79.8229 16.9106H81.4853V19.8333H79.1526Z" fill="black"/>
<path d="M83.1718 19.8333V6.53389H86.2018L86.4967 8.33038C86.9257 7.68686 87.4888 7.17741 88.1859 6.80202C88.901 6.40876 89.7232 6.21213 90.6528 6.21213C92.7085 6.21213 94.1653 7.00759 95.0233 8.59851C95.506 7.86562 96.1495 7.28466 96.9539 6.85565C97.7762 6.42663 98.67 6.21213 99.6352 6.21213C101.369 6.21213 102.701 6.73052 103.63 7.7673C104.56 8.80408 105.025 10.3235 105.025 12.3256V19.8333H101.593V12.6473C101.593 11.5033 101.369 10.6274 100.922 10.0196C100.493 9.41185 99.8229 9.10797 98.9113 9.10797C97.9818 9.10797 97.231 9.4476 96.659 10.1269C96.1048 10.8061 95.8278 11.7536 95.8278 12.9691V19.8333H92.3956V12.6473C92.3956 11.5033 92.1722 10.6274 91.7253 10.0196C91.2784 9.41185 90.5902 9.10797 89.6607 9.10797C88.749 9.10797 88.0072 9.4476 87.4352 10.1269C86.881 10.8061 86.604 11.7536 86.604 12.9691V19.8333H83.1718Z" fill="black"/>
<path d="M113.324 20.1551C112.037 20.1551 110.875 19.8601 109.838 19.2702C108.819 18.6803 108.006 17.867 107.398 16.8302C106.808 15.7756 106.513 14.56 106.513 13.1836C106.513 11.8072 106.817 10.6006 107.425 9.56379C108.033 8.50914 108.846 7.68686 109.865 7.09697C110.902 6.50707 112.064 6.21213 113.351 6.21213C114.62 6.21213 115.764 6.50707 116.783 7.09697C117.82 7.68686 118.633 8.50914 119.223 9.56379C119.831 10.6006 120.135 11.8072 120.135 13.1836C120.135 14.56 119.831 15.7756 119.223 16.8302C118.633 17.867 117.82 18.6803 116.783 19.2702C115.746 19.8601 114.593 20.1551 113.324 20.1551ZM113.324 17.1788C114.218 17.1788 114.995 16.8481 115.657 16.1867C116.318 15.5074 116.649 14.5064 116.649 13.1836C116.649 11.8608 116.318 10.8687 115.657 10.2073C114.995 9.52804 114.227 9.18841 113.351 9.18841C112.439 9.18841 111.653 9.52804 110.991 10.2073C110.348 10.8687 110.026 11.8608 110.026 13.1836C110.026 14.5064 110.348 15.5074 110.991 16.1867C111.653 16.8481 112.43 17.1788 113.324 17.1788Z" fill="black"/>
<path d="M124.801 19.8333L119.921 6.53389H123.514L126.892 16.5889L130.271 6.53389H133.864L128.957 19.8333H124.801Z" fill="black"/>
<path d="M140.495 20.1551C139.155 20.1551 137.966 19.8691 136.929 19.297C135.892 18.725 135.079 17.9206 134.489 16.8838C133.899 15.8471 133.604 14.6494 133.604 13.2908C133.604 11.9144 133.89 10.69 134.462 9.61742C135.052 8.54489 135.857 7.71367 136.876 7.12378C137.912 6.51601 139.128 6.21213 140.522 6.21213C141.827 6.21213 142.98 6.49814 143.981 7.07015C144.982 7.64217 145.76 8.4287 146.314 9.42973C146.886 10.4129 147.172 11.5122 147.172 12.7278C147.172 12.9244 147.163 13.13 147.145 13.3445C147.145 13.559 147.136 13.7824 147.118 14.0148H137.01C137.081 15.0516 137.439 15.8649 138.082 16.4548C138.744 17.0447 139.539 17.3397 140.469 17.3397C141.166 17.3397 141.747 17.1877 142.211 16.8838C142.694 16.5621 143.052 16.1509 143.284 15.6504H146.77C146.519 16.4906 146.099 17.2592 145.51 17.9564C144.937 18.6356 144.222 19.1719 143.364 19.5652C142.524 19.9584 141.568 20.1551 140.495 20.1551ZM140.522 9.00071C139.682 9.00071 138.94 9.24203 138.297 9.72467C137.653 10.1894 137.242 10.9045 137.063 11.8697H143.686C143.633 10.9938 143.311 10.2967 142.721 9.7783C142.131 9.25991 141.398 9.00071 140.522 9.00071Z" fill="black"/>
</g>
<g id="Icon">
<path d="M10.9423 0.699113V9.18404C10.9423 10.1525 10.1572 10.9376 9.18875 10.9376L0.703826 10.9376L0.703826 7.43052H4.95065L0.488602 2.96847L2.96845 0.488617L7.43523 4.9554L7.43523 0.699113L10.9423 0.699113Z" fill="black"/>
<path d="M21.3006 11.0578H12.8157C11.8472 11.0578 11.0621 11.8429 11.0621 12.8113V21.2963L14.5692 21.2962L14.5692 17.049L19.0315 21.5114L21.5114 19.0316L17.0447 14.5648H21.3006V11.0578Z" fill="black"/>
</g>
</g>
</svg>
